<svg width="520" height="520" viewBox="0 0 520 520" fill="none" xmlns="http://www.w3.org/2000/svg">
<g filter="url(#filter0_d_71_34)">
<path d="M259.86 0.00462149C260.371 0.00336374 260.882 0.00210598 261.408 0.000810113C279.16 -0.0364607 296.192 1.20592 313.54 5.05073C314.365 5.22861 315.189 5.40649 316.038 5.58976C320.417 6.55442 324.724 7.68282 329.03 8.93235C330.202 9.25576 331.375 9.57821 332.548 9.89972C338.181 11.4705 343.623 13.2344 348.984 15.5948C350.856 16.4173 352.728 17.2032 354.623 17.9662C377.114 27.0826 397.45 38.9889 416.544 53.9591C417.622 54.7923 417.622 54.7923 418.722 55.6422C422.926 58.9406 426.88 62.4697 430.805 66.0953C432.48 67.6322 434.179 69.1246 435.906 70.6016C442.047 75.9611 447.705 81.8757 452.944 88.1174C453.495 88.7559 454.046 89.3943 454.614 90.0522C469.264 107.265 480.802 126.153 490.893 146.342C491.183 146.909 491.473 147.476 491.772 148.061C505.055 174.061 512.627 204.21 514.901 233.29C514.966 234.012 515.031 234.735 515.098 235.479C520.802 302.09 499.244 368.709 456.409 419.817C454.282 422.32 452.102 424.769 449.882 427.189C448.271 428.952 446.712 430.755 445.151 432.563C442.75 435.279 440.208 437.656 437.446 439.995C435.865 441.381 434.414 442.841 432.953 444.353C429.283 448.068 425.286 451.315 421.191 454.542C420.71 454.924 420.23 455.306 419.735 455.699C396.038 474.458 369.711 488.242 341.195 498.065C339.429 498.678 337.672 499.309 335.918 499.954C321.549 505.086 306.133 507.483 291.081 509.661C290.442 509.755 289.803 509.848 289.145 509.944C224.236 518.907 156.771 497.969 105.026 458.812C89.8557 447.141 75.2555 433.886 63.3887 418.832C62.6857 417.98 61.9807 417.13 61.2741 416.281C50.6387 403.411 41.8915 389.253 33.9591 374.581C33.5256 373.779 33.5256 373.779 33.0833 372.962C17.2943 343.386 9.12602 311.467 5.30396 278.317C5.22297 277.618 5.14198 276.92 5.05854 276.2C1.62234 243.031 6.80661 208.95 16.9209 177.395C17.1251 176.742 17.3292 176.089 17.5396 175.416C25.9519 148.723 39.9475 123.271 57.193 101.315C57.7311 100.619 58.2692 99.9239 58.8236 99.2073C60.3196 97.2996 61.8482 95.4235 63.3887 93.5517C63.9797 92.8151 64.5708 92.0786 65.1797 91.3197C70.4268 84.9017 76.1895 79.0006 82.0243 73.1246C82.4165 72.7274 82.8088 72.3302 83.213 71.9209C88.4755 66.6033 93.9115 61.7066 99.7885 57.0644C100.37 56.595 100.951 56.1256 101.55 55.642C109.668 49.0909 117.99 43.0843 126.895 37.6563C127.466 37.3075 128.038 36.9586 128.627 36.5991C158.348 18.6073 190.203 7.26215 224.477 1.94543C225.431 1.79457 226.385 1.64371 227.368 1.48828C238.152 -0.00586356 248.991 0.0184123 259.86 0.00462149Z" fill="#766FEB"/>
<path d="M311.895 77.9767C312.741 77.9895 312.741 77.9895 313.604 78.0027C314.095 78.0101 314.585 78.0175 315.089 78.0252C314.003 83.7439 312.209 89.0685 310.226 94.5347C309.257 97.21 308.302 99.8907 307.345 102.57C307.051 103.391 307.051 103.391 306.751 104.228C304.847 109.552 302.988 114.891 301.149 120.238C300.839 121.141 300.528 122.043 300.208 122.973C298.447 128.114 296.715 133.265 295.008 138.424C294.817 139 294.626 139.575 294.43 140.169C293.504 142.966 292.582 145.764 291.665 148.564C288.906 156.954 288.906 156.954 287.227 161.034C284.98 166.506 283.234 172.163 281.4 177.783C277.277 190.419 277.277 190.419 274.874 196.25C273.106 200.729 271.575 205.299 269.992 209.846C269.063 212.508 268.122 215.166 267.182 217.824C263.459 228.368 259.755 238.917 256.133 249.496C253.327 257.692 250.45 265.859 247.522 274.013C245.841 278.706 244.191 283.407 242.595 288.13C233.658 314.564 224.462 333.64 199.694 348.186C198.336 348.99 196.977 349.795 195.619 350.6C193.387 351.923 191.154 353.245 188.918 354.564C185.059 356.842 181.225 359.148 177.429 361.529C171.306 365.345 164.969 368.782 158.648 372.252C164.587 370.2 170.526 368.148 176.465 366.094C179.722 364.967 182.98 363.842 186.238 362.718C195.828 359.404 205.396 356.034 214.953 352.627C222.579 349.909 230.214 347.22 237.861 344.562C244.111 342.389 250.357 340.204 256.603 338.019C258.756 337.266 260.908 336.513 263.06 335.761C269.713 333.434 276.366 331.107 283.018 328.779C286.626 327.517 290.233 326.255 293.84 324.993C294.546 324.746 295.252 324.499 295.979 324.245C304.701 321.194 313.426 318.155 322.158 315.132C331.19 312.001 340.209 308.83 349.228 305.661C350.477 305.222 351.726 304.784 352.975 304.345C353.602 304.124 354.23 303.904 354.876 303.677C358.998 302.23 363.123 300.791 367.249 299.356C374.14 296.959 381.023 294.542 387.895 292.094C388.668 291.818 389.44 291.543 390.236 291.26C393.371 290.143 396.505 289.025 399.639 287.906C410.397 284.064 421.185 280.34 432.034 276.764C430.405 284.547 428.687 292.306 426.855 300.043C426.565 301.275 426.28 302.509 425.999 303.744C421.254 324.611 411.653 342.636 393.208 354.297C384.864 359.351 376.274 362.486 366.979 365.265C366.17 365.508 366.17 365.508 365.345 365.755C361.521 366.899 357.691 368.024 353.861 369.147C352.76 369.47 351.66 369.794 350.559 370.117C348.362 370.763 346.164 371.408 343.966 372.053C340.581 373.047 337.197 374.046 333.813 375.045C330.093 376.143 326.372 377.235 322.647 378.314C315.55 380.37 308.471 382.451 301.44 384.722C295.57 386.614 289.654 388.263 283.699 389.861C277.799 391.454 271.957 393.21 266.118 395.012C260.624 396.705 255.117 398.347 249.599 399.957C248.509 400.275 248.509 400.275 247.397 400.6C243.425 401.756 239.449 402.897 235.471 404.03C229.837 405.641 224.228 407.331 218.62 409.03C211.84 411.079 205.055 413.109 198.242 415.047C197.608 415.227 196.974 415.408 196.321 415.594C195.031 415.961 193.742 416.327 192.452 416.694C182.518 419.527 172.618 422.384 162.844 425.734C159.163 426.931 155.429 427.879 151.684 428.851C148.193 429.782 144.759 430.877 141.319 431.98C136.379 433.565 131.433 435.115 126.459 436.59C125.901 436.757 125.343 436.924 124.768 437.096C120.886 438.24 120.886 438.24 119.15 438.24C117.809 417.657 125.901 397.381 132.403 378.177C132.988 376.439 133.566 374.699 134.143 372.958C135.542 368.749 136.977 364.553 138.412 360.355C138.99 358.659 139.569 356.962 140.147 355.265C141.046 352.627 141.946 349.988 142.849 347.351C147.232 334.549 147.232 334.549 151.076 321.578C151.888 318.723 152.916 316.014 154.001 313.251C154.79 311.073 155.557 308.887 156.324 306.701C156.516 306.158 156.708 305.615 156.905 305.056C159.448 297.828 161.749 290.558 163.875 283.196C164.734 280.279 165.609 277.434 166.831 274.647C167.898 272.205 168.695 269.811 169.442 267.254C170.384 264.106 171.38 261.013 172.54 257.938C174.121 253.694 175.373 249.374 176.586 245.013C176.737 244.479 176.888 243.945 177.044 243.394C177.175 242.924 177.305 242.454 177.439 241.97C178.009 240.277 178.009 240.277 179.124 237.732C180.361 234.883 181.226 231.963 182.051 228.972C184.613 219.982 187.726 211.183 190.779 202.352C193.651 194.034 196.418 185.719 198.839 177.258C200.096 172.895 201.46 168.57 202.841 164.246C203.219 163.044 203.219 163.044 203.605 161.818C205.014 157.394 206.573 153.084 208.329 148.788C209.105 146.822 209.689 144.851 210.198 142.8C215.922 121.003 226.769 103.296 246.162 91.2227C258.559 84.3045 272.661 82.7072 286.483 80.9849C288.843 80.6831 291.203 80.3791 293.563 80.0747C295.018 79.8879 296.474 79.7029 297.93 79.52C310.36 77.9534 310.36 77.9534 311.895 77.9767Z" fill="#FDFDFD"/>
</g>
<defs>
<filter id="filter0_d_71_34" x="0" y="0" width="520" height="520" filterUnits="userSpaceOnUse" color-interpolation-filters="sRGB">
<feFlood flood-opacity="0" result="BackgroundImageFix"/>
<feColorMatrix in="SourceAlpha" type="matrix" values="0 0 0 0 0 0 0 0 0 0 0 0 0 0 0 0 0 0 127 0" result="hardAlpha"/>
<feOffset dy="4"/>
<feGaussianBlur stdDeviation="2"/>
<feComposite in2="hardAlpha" operator="out"/>
<feColorMatrix type="matrix" values="0 0 0 0 0 0 0 0 0 0 0 0 0 0 0 0 0 0 0.25 0"/>
<feBlend mode="normal" in2="BackgroundImageFix" result="effect1_dropShadow_71_34"/>
<feBlend mode="normal" in="SourceGraphic" in2="effect1_dropShadow_71_34" result="shape"/>
</filter>
</defs>
</svg>
