<svg width="32" height="32" viewBox="0 0 32 32" fill="none" xmlns="http://www.w3.org/2000/svg">
<rect width="32" height="32" fill="white"/>
<g clip-path="url(#clip0_2_7)">
<g filter="url(#filter0_d_2_7)">
<path d="M15.9918 1.00027C16.0217 1.0002 16.0517 1.00012 16.0825 1.00005C17.1226 0.997864 18.1206 1.07066 19.1371 1.29594C19.1854 1.30636 19.2337 1.31679 19.2835 1.32752C19.5401 1.38405 19.7924 1.45017 20.0447 1.52338C20.1134 1.54233 20.1821 1.56122 20.2509 1.58006C20.5809 1.6721 20.8998 1.77545 21.2139 1.91376C21.3236 1.96195 21.4333 2.008 21.5443 2.05271C22.8621 2.58687 24.0537 3.2845 25.1725 4.16166C25.2357 4.21049 25.2357 4.21049 25.3001 4.26028C25.5464 4.45355 25.7781 4.66033 26.0081 4.87277C26.1062 4.96282 26.2058 5.05027 26.307 5.13681C26.6668 5.45084 26.9983 5.7974 27.3053 6.16313C27.3376 6.20054 27.3699 6.23795 27.4032 6.27649C28.2616 7.28506 28.9376 8.39177 29.5289 9.57472C29.5459 9.60795 29.5629 9.64117 29.5804 9.67545C30.3587 11.1989 30.8024 12.9654 30.9356 14.6693C30.9394 14.7116 30.9432 14.754 30.9471 14.7976C31.2814 18.7006 30.0182 22.604 27.5083 25.5986C27.3837 25.7453 27.256 25.8888 27.1259 26.0306C27.0315 26.1339 26.9401 26.2395 26.8487 26.3455C26.708 26.5046 26.5591 26.6439 26.3972 26.7809C26.3046 26.8622 26.2196 26.9477 26.134 27.0363C25.9189 27.254 25.6847 27.4442 25.4448 27.6333C25.4166 27.6557 25.3885 27.6781 25.3595 27.7011C23.971 28.8003 22.4284 29.6079 20.7575 30.1835C20.654 30.2194 20.5511 30.2564 20.4483 30.2942C19.6064 30.5949 18.7031 30.7353 17.8211 30.8629C17.7837 30.8684 17.7463 30.8739 17.7077 30.8795C13.9044 31.4047 9.95142 30.1779 6.91949 27.8835C6.03061 27.1997 5.17513 26.423 4.47981 25.5409C4.43861 25.491 4.39731 25.4412 4.3559 25.3915C3.73274 24.6374 3.2202 23.8078 2.75542 22.9481C2.73001 22.9011 2.73002 22.9011 2.7041 22.8532C1.77896 21.1203 1.30035 19.25 1.0764 17.3076C1.07166 17.2667 1.06691 17.2258 1.06202 17.1836C0.860684 15.2401 1.16445 13.2432 1.75708 11.3942C1.76905 11.356 1.78101 11.3177 1.79334 11.2783C2.28624 9.71423 3.1063 8.22291 4.11678 6.93642C4.14831 6.89564 4.17983 6.85491 4.21232 6.81293C4.29998 6.70115 4.38954 6.59122 4.47981 6.48154C4.51443 6.43838 4.54907 6.39523 4.58475 6.35076C4.89219 5.97471 5.22985 5.62894 5.57173 5.28464C5.59472 5.26137 5.6177 5.2381 5.64138 5.21411C5.94973 4.90254 6.26825 4.61562 6.61261 4.34362C6.64668 4.31611 6.68072 4.28861 6.71582 4.26027C7.19148 3.87642 7.6791 3.52447 8.20088 3.20642C8.23433 3.18599 8.26785 3.16554 8.30236 3.14448C10.0438 2.09027 11.9103 1.42552 13.9186 1.11399C13.9745 1.10515 14.0304 1.09631 14.088 1.0872C14.7198 0.999656 15.3549 1.00108 15.9918 1.00027Z" fill="#766FEB"/>
<path d="M19.0407 5.56895C19.0903 5.5697 19.0903 5.5697 19.1409 5.57047C19.1696 5.5709 19.1983 5.57134 19.2279 5.57179C19.1642 5.90687 19.0591 6.21886 18.9429 6.53914C18.8861 6.6959 18.8302 6.85297 18.7741 7.00996C18.7569 7.05806 18.7569 7.05806 18.7393 7.10711C18.6278 7.41906 18.5188 7.73189 18.4111 8.04519C18.3929 8.0981 18.3747 8.15096 18.3559 8.20545C18.2528 8.50668 18.1513 8.80849 18.0512 9.11078C18.0401 9.14453 18.0289 9.17822 18.0174 9.21303C17.9631 9.37691 17.9091 9.54086 17.8554 9.70492C17.6937 10.1965 17.6937 10.1965 17.5953 10.4356C17.4637 10.7562 17.3614 11.0877 17.2539 11.417C17.0123 12.1574 17.0123 12.1574 16.8715 12.499C16.7679 12.7615 16.6782 13.0292 16.5855 13.2957C16.531 13.4516 16.4759 13.6074 16.4208 13.7631C16.2027 14.3809 15.9856 14.999 15.7734 15.6189C15.609 16.0991 15.4404 16.5777 15.2689 17.0554C15.1704 17.3304 15.0737 17.6059 14.9802 17.8826C14.4565 19.4315 13.9177 20.5492 12.4664 21.4015C12.3869 21.4486 12.3072 21.4958 12.2277 21.543C12.0969 21.6205 11.9661 21.6979 11.835 21.7752C11.6089 21.9087 11.3843 22.0438 11.1619 22.1833C10.8031 22.4069 10.4318 22.6083 10.0614 22.8116C10.4094 22.6914 10.7574 22.5712 11.1054 22.4508C11.2962 22.3848 11.4871 22.3189 11.678 22.253C12.2399 22.0588 12.8005 21.8614 13.3605 21.6617C13.8074 21.5025 14.2547 21.3449 14.7028 21.1892C15.069 21.0619 15.435 20.9338 15.801 20.8058C15.9271 20.7617 16.0532 20.7176 16.1793 20.6735C16.5691 20.5371 16.9589 20.4008 17.3487 20.2644C17.5601 20.1904 17.7715 20.1165 17.9828 20.0426C18.0242 20.0281 18.0655 20.0136 18.1081 19.9987C18.6192 19.82 19.1304 19.6419 19.6421 19.4648C20.1713 19.2813 20.6997 19.0955 21.2282 18.9098C21.3014 18.8841 21.3746 18.8584 21.4477 18.8327C21.4845 18.8198 21.5213 18.8069 21.5591 18.7936C21.8007 18.7088 22.0424 18.6245 22.2841 18.5404C22.6879 18.3999 23.0912 18.2583 23.4938 18.1149C23.5391 18.0987 23.5844 18.0826 23.631 18.066C23.8147 18.0006 23.9983 17.9351 24.182 17.8695C24.8123 17.6444 25.4444 17.4262 26.0801 17.2166C25.9847 17.6727 25.884 18.1273 25.7767 18.5806C25.7597 18.6528 25.743 18.7251 25.7265 18.7975C25.4485 20.0202 24.8859 21.0763 23.8052 21.7596C23.3162 22.0557 22.8129 22.2394 22.2683 22.4022C22.2209 22.4165 22.2209 22.4165 22.1726 22.431C21.9485 22.498 21.7241 22.5639 21.4997 22.6297C21.4352 22.6486 21.3707 22.6676 21.3062 22.6865C21.1775 22.7244 21.0487 22.7622 20.9199 22.8C20.7215 22.8582 20.5233 22.9168 20.325 22.9753C20.107 23.0396 19.889 23.1036 19.6707 23.1668C19.2549 23.2873 18.8401 23.4092 18.4281 23.5423C18.0842 23.6532 17.7375 23.7498 17.3886 23.8434C17.0429 23.9368 16.7006 24.0396 16.3585 24.1452C16.0366 24.2444 15.7139 24.3406 15.3906 24.435C15.3267 24.4536 15.3267 24.4536 15.2615 24.4726C15.0288 24.5404 14.7958 24.6072 14.5628 24.6736C14.2326 24.768 13.904 24.867 13.5754 24.9666C13.1781 25.0867 12.7806 25.2056 12.3814 25.3192C12.3442 25.3297 12.3071 25.3403 12.2688 25.3512C12.1932 25.3727 12.1177 25.3942 12.0421 25.4157C11.46 25.5817 10.88 25.7491 10.3073 25.9453C10.0916 26.0155 9.87279 26.071 9.65336 26.128C9.44881 26.1825 9.2476 26.2467 9.04603 26.3113C8.75658 26.4042 8.46678 26.495 8.17533 26.5814C8.14263 26.5912 8.10994 26.601 8.07625 26.6111C7.84879 26.6781 7.84879 26.6781 7.74707 26.6781C7.66849 25.4721 8.14263 24.284 8.52361 23.1588C8.55789 23.057 8.59176 22.955 8.62556 22.853C8.70754 22.6064 8.79162 22.3605 8.8757 22.1145C8.90957 22.0152 8.94349 21.9157 8.97736 21.8163C9.03004 21.6617 9.08277 21.5071 9.13568 21.3526C9.3925 20.6025 9.3925 20.6025 9.61773 19.8425C9.66531 19.6752 9.72554 19.5164 9.78912 19.3545C9.83535 19.2269 9.88029 19.0988 9.92523 18.9708C9.93648 18.9389 9.94773 18.9071 9.95927 18.8744C10.1083 18.4509 10.2431 18.0249 10.3677 17.5935C10.418 17.4226 10.4693 17.2559 10.5409 17.0926C10.6034 16.9495 10.6501 16.8092 10.6939 16.6594C10.7491 16.475 10.8074 16.2937 10.8754 16.1136C10.968 15.8649 11.0414 15.6118 11.1125 15.3562C11.1213 15.3249 11.1302 15.2936 11.1393 15.2614C11.147 15.2338 11.1546 15.2063 11.1624 15.1779C11.1958 15.0787 11.1958 15.0787 11.2612 14.9296C11.3336 14.7627 11.3843 14.5916 11.4327 14.4163C11.5828 13.8896 11.7652 13.374 11.9441 12.8566C12.1124 12.3692 12.2745 11.882 12.4163 11.3862C12.49 11.1306 12.5699 10.8771 12.6508 10.6238C12.673 10.5534 12.673 10.5534 12.6956 10.4815C12.7782 10.2223 12.8695 9.96976 12.9724 9.71804C13.0179 9.60285 13.0521 9.48736 13.0819 9.36719C13.4173 8.09002 14.0529 7.0525 15.1892 6.34508C15.9156 5.93972 16.7419 5.84612 17.5517 5.74521C17.69 5.72752 17.8283 5.70971 17.9666 5.69188C18.0518 5.68093 18.1371 5.67009 18.2225 5.65937C18.9508 5.56758 18.9508 5.56758 19.0407 5.56895Z" fill="#FDFDFD"/>
</g>
</g>
<defs>
<filter id="filter0_d_2_7" x="-3" y="1" width="38" height="38" filterUnits="userSpaceOnUse" color-interpolation-filters="sRGB">
<feFlood flood-opacity="0" result="BackgroundImageFix"/>
<feColorMatrix in="SourceAlpha" type="matrix" values="0 0 0 0 0 0 0 0 0 0 0 0 0 0 0 0 0 0 127 0" result="hardAlpha"/>
<feOffset dy="4"/>
<feGaussianBlur stdDeviation="2"/>
<feComposite in2="hardAlpha" operator="out"/>
<feColorMatrix type="matrix" values="0 0 0 0 0 0 0 0 0 0 0 0 0 0 0 0 0 0 0.25 0"/>
<feBlend mode="normal" in2="BackgroundImageFix" result="effect1_dropShadow_2_7"/>
<feBlend mode="normal" in="SourceGraphic" in2="effect1_dropShadow_2_7" result="shape"/>
</filter>
<clipPath id="clip0_2_7">
<rect width="30" height="30" fill="white" transform="translate(1 1)"/>
</clipPath>
</defs>
</svg>
